<svg xmlns="http://www.w3.org/2000/svg" width="28" height="29.12" viewBox="0 0 28 29.12">
  <path id="icons8_sms" d="M18.92,0C13.351,0,8.84,3.509,8.84,7.84a7.454,7.454,0,0,0,4.1,6.3c.166.8-2.463,4.393-2.87,4.9a19.5,19.5,0,0,0,8.855-3.36C24.489,15.68,29,12.171,29,7.84S24.489,0,18.92,0ZM4.36,2.24A3.361,3.361,0,0,0,1,5.6V25.76a3.361,3.361,0,0,0,3.36,3.36H14.44a3.361,3.361,0,0,0,3.36-3.36V18.97a23.626,23.626,0,0,1-2.24,1.015V22.96a.558.558,0,0,1-.56.56H3.8a.558.558,0,0,1-.56-.56V6.16A.558.558,0,0,1,3.8,5.6H6.915A9.248,9.248,0,0,1,8.7,2.24Zm8.785,2.205a3.318,3.318,0,0,1,.8.105,1.675,1.675,0,0,1,.63.315,1.5,1.5,0,0,1,.42.56,1.8,1.8,0,0,1,.14.77v.21H13.88a1.393,1.393,0,0,0-.14-.735.629.629,0,0,0-.56-.245.8.8,0,0,0-.35.07.689.689,0,0,0-.245.175.587.587,0,0,0-.105.245,1.17,1.17,0,0,0-.035.28.9.9,0,0,0,.1.49,1.213,1.213,0,0,0,.56.385l1.015.42a2.926,2.926,0,0,1,.595.35,1.784,1.784,0,0,1,.385.385,1.271,1.271,0,0,1,.21.455,2.833,2.833,0,0,1,.035.56,1.731,1.731,0,0,1-.595,1.47,2.56,2.56,0,0,1-1.645.49,2.248,2.248,0,0,1-1.61-.49,1.911,1.911,0,0,1-.455-1.4V9.065h1.3V9.24a2.058,2.058,0,0,0,.035.42.74.74,0,0,0,.14.315.727.727,0,0,0,.28.21,1.066,1.066,0,0,0,.42.07.806.806,0,0,0,.525-.21.709.709,0,0,0,.245-.6,1.178,1.178,0,0,0-.035-.385.751.751,0,0,0-.21-.28,1.37,1.37,0,0,0-.35-.21,5.15,5.15,0,0,0-.56-.245,4.831,4.831,0,0,1-.77-.315,1.942,1.942,0,0,1-.525-.385,1.508,1.508,0,0,1-.315-.56,2.244,2.244,0,0,1-.1-.7,1.817,1.817,0,0,1,.56-1.435A2.149,2.149,0,0,1,13.145,4.445Zm11.445,0a3.586,3.586,0,0,1,.84.105,1.675,1.675,0,0,1,.63.315,1.5,1.5,0,0,1,.42.56,1.8,1.8,0,0,1,.14.77v.21H25.36a1.37,1.37,0,0,0-.175-.735.565.565,0,0,0-.525-.245.976.976,0,0,0-.385.07.555.555,0,0,0-.21.175.651.651,0,0,0-.14.245,1.165,1.165,0,0,0-.035.28.9.9,0,0,0,.14.49,1.213,1.213,0,0,0,.56.385l1.015.42a2.926,2.926,0,0,1,.595.35,1.784,1.784,0,0,1,.385.385,1.2,1.2,0,0,1,.175.455,2.716,2.716,0,0,1,.07.56,1.726,1.726,0,0,1-.595,1.47,2.675,2.675,0,0,1-1.68.49,2.153,2.153,0,0,1-1.575-.49,1.924,1.924,0,0,1-.49-1.4V9.065h1.33V9.24a2.058,2.058,0,0,0,.035.42.74.74,0,0,0,.14.315.609.609,0,0,0,.245.21,1.26,1.26,0,0,0,.455.07.806.806,0,0,0,.525-.21.714.714,0,0,0,.245-.6,1.141,1.141,0,0,0-.07-.385.659.659,0,0,0-.175-.28,1.668,1.668,0,0,0-.385-.245,4.836,4.836,0,0,0-.525-.21,4.831,4.831,0,0,1-.77-.315,1.942,1.942,0,0,1-.525-.385,1.508,1.508,0,0,1-.315-.56,2.244,2.244,0,0,1-.1-.7,1.8,1.8,0,0,1,.525-1.435A2.149,2.149,0,0,1,24.59,4.445Zm-8.54.14h1.925L18.92,9.17h.035l.91-4.585h1.96V11.1H20.6V5.915L19.445,11.1H18.43l-1.155-5.18H17.24V11.1H16.05ZM9.4,24.885A1.435,1.435,0,1,1,7.965,26.32,1.436,1.436,0,0,1,9.4,24.885Z" transform="translate(-1)" fill="#fff"/>
</svg>
