<svg xmlns="http://www.w3.org/2000/svg" width="28" height="24.769" viewBox="0 0 28 24.769">
  <path id="icons8_user_groups" d="M9.692,1a3.231,3.231,0,1,0,3.231,3.231A3.232,3.232,0,0,0,9.692,1Zm0,6.462a2.97,2.97,0,0,0-.976.1,5.142,5.142,0,0,1,.976,3.13c0,.429-.1.85-.1,1.279a5.463,5.463,0,0,1,3.87-2.356A4.344,4.344,0,0,0,9.692,7.462ZM18.308,1a3.231,3.231,0,1,0,3.231,3.231A3.232,3.232,0,0,0,18.308,1Zm0,6.462a4.344,4.344,0,0,0-3.769,2.154,5.463,5.463,0,0,1,3.87,2.356c0-.429-.1-.85-.1-1.279a5.142,5.142,0,0,1,.976-3.13A2.97,2.97,0,0,0,18.308,7.462Zm-14,0a3.231,3.231,0,1,0,3.231,3.231A3.232,3.232,0,0,0,4.308,7.462Zm0,6.462A4.321,4.321,0,0,0,0,18.231v2.356s1.077.875,4.308.875,4.308-.875,4.308-.875V18.231A4.321,4.321,0,0,0,4.308,13.923ZM23.692,7.462a3.231,3.231,0,1,0,3.231,3.231A3.232,3.232,0,0,0,23.692,7.462Zm0,6.462a4.321,4.321,0,0,0-4.308,4.308v2.356s1.077.875,4.308.875S28,20.587,28,20.587V18.231A4.321,4.321,0,0,0,23.692,13.923ZM14,11.769A3.231,3.231,0,1,0,17.231,15,3.232,3.232,0,0,0,14,11.769Zm0,6.462a4.321,4.321,0,0,0-4.308,4.308v2.356s1.077.875,4.308.875,4.308-.875,4.308-.875V22.538A4.321,4.321,0,0,0,14,18.231Z" transform="translate(0 -1)" fill="#fff"/>
</svg>
