<svg xmlns="http://www.w3.org/2000/svg" width="28" height="28" viewBox="0 0 28 28"><path id="icons8_home_page" fill="#fff" d="M17,2a1.167,1.167,0,0,0-.816.333L3.458,12.741l-.043.034-.043.037v0a1.166,1.166,0,0,0,.8,2.019H5.333V27.667A2.333,2.333,0,0,0,7.667,30H26.333a2.333,2.333,0,0,0,2.333-2.333V14.833h1.167a1.167,1.167,0,0,0,.8-2.021L30.61,12.8q-.038-.035-.08-.066L26.333,9.3V4.333a1.167,1.167,0,0,0-1.167-1.167H24a1.167,1.167,0,0,0-1.167,1.167v2.1L17.791,2.312A1.167,1.167,0,0,0,17,2ZM13.5,18.333h7v9.333h-7Z" transform="translate(-3 -2)"/></svg>